G04 #@! TF.GenerationSoftware,KiCad,Pcbnew,(6.0.7-1)-1*
G04 #@! TF.CreationDate,2022-08-21T00:27:36+09:30*
G04 #@! TF.ProjectId,volca-trs,766f6c63-612d-4747-9273-2e6b69636164,rev?*
G04 #@! TF.SameCoordinates,Original*
G04 #@! TF.FileFunction,Copper,L2,Bot*
G04 #@! TF.FilePolarity,Positive*
%FSLAX46Y46*%
G04 Gerber Fmt 4.6, Leading zero omitted, Abs format (unit mm)*
G04 Created by KiCad (PCBNEW (6.0.7-1)-1) date 2022-08-21 00:27:36*
%MOMM*%
%LPD*%
G01*
G04 APERTURE LIST*
G04 #@! TA.AperFunction,ComponentPad*
%ADD10C,1.700000*%
G04 #@! TD*
G04 #@! TA.AperFunction,Conductor*
%ADD11C,0.250000*%
G04 #@! TD*
G04 APERTURE END LIST*
D10*
X40000000Y-45500000D03*
X43890000Y-43890000D03*
X36110000Y-43890000D03*
X40000000Y-35500000D03*
X43550000Y-39600000D03*
X42700000Y-42125000D03*
X36400000Y-37875000D03*
X35650000Y-40400000D03*
X41100000Y-37875000D03*
D11*
X43890000Y-43890000D02*
X45000000Y-42780000D01*
X45000000Y-41050000D02*
X43550000Y-39600000D01*
X45000000Y-42780000D02*
X45000000Y-41050000D01*
X35650000Y-40400000D02*
X35650000Y-41850000D01*
X35650000Y-41850000D02*
X36110000Y-42310000D01*
X36110000Y-42310000D02*
X36110000Y-43890000D01*
G04 #@! TA.AperFunction,Conductor*
G36*
X40224211Y-33012264D02*
G01*
X40726212Y-33046486D01*
X40735367Y-33047448D01*
X41022766Y-33088351D01*
X41233511Y-33118345D01*
X41242599Y-33119980D01*
X41530525Y-33182758D01*
X41734216Y-33227170D01*
X41743145Y-33229463D01*
X42225576Y-33372365D01*
X42234315Y-33375306D01*
X42705003Y-33553165D01*
X42713484Y-33556729D01*
X43169899Y-33768590D01*
X43178119Y-33772779D01*
X43617753Y-34017476D01*
X43625628Y-34022245D01*
X44046190Y-34298502D01*
X44053708Y-34303846D01*
X44452892Y-34610151D01*
X44459990Y-34616022D01*
X44835688Y-34950756D01*
X44842324Y-34957120D01*
X45192479Y-35318452D01*
X45198654Y-35325310D01*
X45403153Y-35569887D01*
X45521406Y-35711316D01*
X45527066Y-35718613D01*
X45820672Y-36127210D01*
X45825782Y-36134901D01*
X45938199Y-36318348D01*
X46083931Y-36556161D01*
X46088678Y-36563908D01*
X46093208Y-36571948D01*
X46169168Y-36719118D01*
X46323982Y-37019065D01*
X46327913Y-37027420D01*
X46525313Y-37490216D01*
X46528623Y-37498837D01*
X46579496Y-37647424D01*
X46681340Y-37944887D01*
X46691601Y-37974858D01*
X46694270Y-37983698D01*
X46716850Y-38069767D01*
X46816501Y-38449612D01*
X46821951Y-38470388D01*
X46823965Y-38479400D01*
X46915656Y-38974119D01*
X46917005Y-38983255D01*
X46972217Y-39483366D01*
X46972893Y-39492575D01*
X46976956Y-39603365D01*
X46991244Y-39993000D01*
X46991355Y-39996034D01*
X46991397Y-40003936D01*
X46986006Y-40209829D01*
X46982022Y-40361953D01*
X46981567Y-40369842D01*
X46946042Y-40767894D01*
X46936781Y-40871661D01*
X46935624Y-40880822D01*
X46854313Y-41377359D01*
X46852488Y-41386411D01*
X46735027Y-41875670D01*
X46732543Y-41884564D01*
X46654354Y-42129563D01*
X46593653Y-42319767D01*
X46579574Y-42363881D01*
X46576447Y-42372566D01*
X46449583Y-42688150D01*
X46388774Y-42839418D01*
X46385018Y-42847853D01*
X46163668Y-43299684D01*
X46159305Y-43307822D01*
X45905451Y-43742242D01*
X45900503Y-43750039D01*
X45804310Y-43890000D01*
X45631495Y-44141448D01*
X45615516Y-44164697D01*
X45610012Y-44172109D01*
X45471868Y-44344540D01*
X45397573Y-44437276D01*
X45339371Y-44477933D01*
X45268427Y-44480670D01*
X45207266Y-44444617D01*
X45175305Y-44381221D01*
X45178681Y-44321866D01*
X45220865Y-44183023D01*
X45220865Y-44183021D01*
X45222370Y-44178069D01*
X45251529Y-43956590D01*
X45252093Y-43933523D01*
X45253074Y-43893365D01*
X45253074Y-43893361D01*
X45253156Y-43890000D01*
X45234852Y-43667361D01*
X45206821Y-43555766D01*
X45209625Y-43484825D01*
X45239930Y-43435975D01*
X45392253Y-43283652D01*
X45400539Y-43276112D01*
X45407018Y-43272000D01*
X45453644Y-43222348D01*
X45456398Y-43219507D01*
X45476135Y-43199770D01*
X45478615Y-43196573D01*
X45486320Y-43187551D01*
X45511159Y-43161100D01*
X45516586Y-43155321D01*
X45520405Y-43148375D01*
X45520407Y-43148372D01*
X45526348Y-43137566D01*
X45537199Y-43121047D01*
X45544758Y-43111301D01*
X45549614Y-43105041D01*
X45552759Y-43097772D01*
X45552762Y-43097768D01*
X45567174Y-43064463D01*
X45572391Y-43053813D01*
X45593695Y-43015060D01*
X45598733Y-42995437D01*
X45605137Y-42976734D01*
X45610033Y-42965420D01*
X45610033Y-42965419D01*
X45613181Y-42958145D01*
X45614420Y-42950322D01*
X45614423Y-42950312D01*
X45620099Y-42914476D01*
X45622505Y-42902856D01*
X45631528Y-42867711D01*
X45631528Y-42867710D01*
X45633500Y-42860030D01*
X45633500Y-42839776D01*
X45635051Y-42820065D01*
X45636980Y-42807886D01*
X45638220Y-42800057D01*
X45634059Y-42756038D01*
X45633500Y-42744181D01*
X45633500Y-41128768D01*
X45634027Y-41117585D01*
X45635702Y-41110092D01*
X45635330Y-41098238D01*
X45633562Y-41042002D01*
X45633500Y-41038044D01*
X45633500Y-41010144D01*
X45632996Y-41006153D01*
X45632063Y-40994311D01*
X45631347Y-40971507D01*
X45630674Y-40950111D01*
X45625021Y-40930652D01*
X45621012Y-40911293D01*
X45620846Y-40909983D01*
X45618474Y-40891203D01*
X45615558Y-40883837D01*
X45615556Y-40883831D01*
X45602200Y-40850098D01*
X45598355Y-40838868D01*
X45588230Y-40804017D01*
X45588230Y-40804016D01*
X45586019Y-40796407D01*
X45575705Y-40778966D01*
X45567008Y-40761213D01*
X45562472Y-40749758D01*
X45559552Y-40742383D01*
X45533563Y-40706612D01*
X45527047Y-40696692D01*
X45524877Y-40693023D01*
X45504542Y-40658638D01*
X45490221Y-40644317D01*
X45477380Y-40629283D01*
X45470131Y-40619306D01*
X45465472Y-40612893D01*
X45459368Y-40607843D01*
X45459363Y-40607838D01*
X45431402Y-40584707D01*
X45422621Y-40576717D01*
X44901217Y-40055312D01*
X44867192Y-39993000D01*
X44869755Y-39929590D01*
X44882370Y-39888069D01*
X44911529Y-39666590D01*
X44913156Y-39600000D01*
X44894852Y-39377361D01*
X44840431Y-39160702D01*
X44751354Y-38955840D01*
X44630014Y-38768277D01*
X44479670Y-38603051D01*
X44475619Y-38599852D01*
X44475615Y-38599848D01*
X44308414Y-38467800D01*
X44308410Y-38467798D01*
X44304359Y-38464598D01*
X44108789Y-38356638D01*
X44103920Y-38354914D01*
X44103916Y-38354912D01*
X43903087Y-38283795D01*
X43903083Y-38283794D01*
X43898212Y-38282069D01*
X43893119Y-38281162D01*
X43893116Y-38281161D01*
X43683373Y-38243800D01*
X43683367Y-38243799D01*
X43678284Y-38242894D01*
X43604452Y-38241992D01*
X43460081Y-38240228D01*
X43460079Y-38240228D01*
X43454911Y-38240165D01*
X43234091Y-38273955D01*
X43021756Y-38343357D01*
X42823607Y-38446507D01*
X42819474Y-38449610D01*
X42819471Y-38449612D01*
X42649100Y-38577530D01*
X42644965Y-38580635D01*
X42490629Y-38742138D01*
X42487715Y-38746410D01*
X42487714Y-38746411D01*
X42475404Y-38764457D01*
X42364743Y-38926680D01*
X42331627Y-38998023D01*
X42281632Y-39105729D01*
X42270688Y-39129305D01*
X42210989Y-39344570D01*
X42187251Y-39566695D01*
X42187548Y-39571848D01*
X42187548Y-39571851D01*
X42193011Y-39666590D01*
X42200110Y-39789715D01*
X42201247Y-39794761D01*
X42201248Y-39794767D01*
X42221119Y-39882939D01*
X42249222Y-40007639D01*
X42333266Y-40214616D01*
X42335965Y-40219020D01*
X42444814Y-40396646D01*
X42449987Y-40405088D01*
X42594080Y-40571433D01*
X42623562Y-40636017D01*
X42613448Y-40706289D01*
X42566946Y-40759937D01*
X42517901Y-40778479D01*
X42460341Y-40787287D01*
X42384091Y-40798955D01*
X42171756Y-40868357D01*
X42167164Y-40870747D01*
X42167165Y-40870747D01*
X41999485Y-40958036D01*
X41973607Y-40971507D01*
X41969474Y-40974610D01*
X41969471Y-40974612D01*
X41799100Y-41102530D01*
X41794965Y-41105635D01*
X41640629Y-41267138D01*
X41637715Y-41271410D01*
X41637714Y-41271411D01*
X41565441Y-41377359D01*
X41514743Y-41451680D01*
X41420688Y-41654305D01*
X41360989Y-41869570D01*
X41337251Y-42091695D01*
X41337548Y-42096848D01*
X41337548Y-42096851D01*
X41346204Y-42246973D01*
X41350110Y-42314715D01*
X41351247Y-42319761D01*
X41351248Y-42319767D01*
X41372275Y-42413069D01*
X41399222Y-42532639D01*
X41483266Y-42739616D01*
X41489706Y-42750125D01*
X41561652Y-42867530D01*
X41599987Y-42930088D01*
X41746250Y-43098938D01*
X41918126Y-43241632D01*
X42111000Y-43354338D01*
X42319692Y-43434030D01*
X42458877Y-43462348D01*
X42521640Y-43495528D01*
X42556502Y-43557376D01*
X42555172Y-43619487D01*
X42550989Y-43634570D01*
X42550441Y-43639700D01*
X42550440Y-43639704D01*
X42546933Y-43672522D01*
X42527251Y-43856695D01*
X42527548Y-43861848D01*
X42527548Y-43861851D01*
X42533011Y-43956590D01*
X42540110Y-44079715D01*
X42541247Y-44084761D01*
X42541248Y-44084767D01*
X42554665Y-44144301D01*
X42589222Y-44297639D01*
X42627461Y-44391811D01*
X42663543Y-44480670D01*
X42673266Y-44504616D01*
X42789987Y-44695088D01*
X42936250Y-44863938D01*
X43108126Y-45006632D01*
X43301000Y-45119338D01*
X43305825Y-45121180D01*
X43305826Y-45121181D01*
X43343222Y-45135461D01*
X43509692Y-45199030D01*
X43514760Y-45200061D01*
X43514763Y-45200062D01*
X43622017Y-45221883D01*
X43728597Y-45243567D01*
X43733772Y-45243757D01*
X43733774Y-45243757D01*
X43946673Y-45251564D01*
X43946677Y-45251564D01*
X43951837Y-45251753D01*
X43956957Y-45251097D01*
X43956959Y-45251097D01*
X44168288Y-45224025D01*
X44168289Y-45224025D01*
X44173416Y-45223368D01*
X44240976Y-45203099D01*
X44321985Y-45178795D01*
X44392981Y-45178379D01*
X44452931Y-45216411D01*
X44482803Y-45280817D01*
X44473112Y-45351149D01*
X44436974Y-45397815D01*
X44230525Y-45563212D01*
X44172111Y-45610010D01*
X44164697Y-45615516D01*
X43750039Y-45900503D01*
X43742242Y-45905451D01*
X43307822Y-46159305D01*
X43299684Y-46163668D01*
X42847853Y-46385018D01*
X42839419Y-46388774D01*
X42625390Y-46474813D01*
X42372570Y-46576446D01*
X42363886Y-46579572D01*
X42194209Y-46633723D01*
X41884564Y-46732543D01*
X41875670Y-46735027D01*
X41386411Y-46852488D01*
X41377359Y-46854313D01*
X40880822Y-46935624D01*
X40871661Y-46936781D01*
X40842571Y-46939377D01*
X40671423Y-46954652D01*
X40601795Y-46940785D01*
X40550716Y-46891475D01*
X40534405Y-46822377D01*
X40558041Y-46755430D01*
X40604790Y-46716000D01*
X40693097Y-46672738D01*
X40701944Y-46667465D01*
X40749247Y-46633723D01*
X40757648Y-46623023D01*
X40750660Y-46609870D01*
X40012812Y-45872022D01*
X39998868Y-45864408D01*
X39997035Y-45864539D01*
X39990420Y-45868790D01*
X39246737Y-46612473D01*
X39239977Y-46624853D01*
X39245257Y-46631906D01*
X39403371Y-46724301D01*
X39452094Y-46775940D01*
X39465165Y-46845723D01*
X39438433Y-46911495D01*
X39380386Y-46952373D01*
X39323355Y-46958011D01*
X38954163Y-46909406D01*
X38838617Y-46894194D01*
X38829512Y-46892654D01*
X38336814Y-46790621D01*
X38327846Y-46788418D01*
X37843957Y-46650579D01*
X37835175Y-46647726D01*
X37621440Y-46569510D01*
X37362657Y-46474809D01*
X37354127Y-46471328D01*
X36895541Y-46264269D01*
X36887270Y-46260163D01*
X36445091Y-46020079D01*
X36437143Y-46015378D01*
X36013747Y-45743563D01*
X36006164Y-45738293D01*
X35651313Y-45471863D01*
X38638050Y-45471863D01*
X38650309Y-45684477D01*
X38651745Y-45694697D01*
X38698565Y-45902446D01*
X38701645Y-45912275D01*
X38781770Y-46109603D01*
X38786413Y-46118794D01*
X38866460Y-46249420D01*
X38876916Y-46258880D01*
X38885694Y-46255096D01*
X39627978Y-45512812D01*
X39634356Y-45501132D01*
X40364408Y-45501132D01*
X40364539Y-45502965D01*
X40368790Y-45509580D01*
X41110474Y-46251264D01*
X41122484Y-46257823D01*
X41134223Y-46248855D01*
X41165004Y-46206019D01*
X41170315Y-46197180D01*
X41264670Y-46006267D01*
X41268469Y-45996672D01*
X41330376Y-45792915D01*
X41332555Y-45782834D01*
X41360590Y-45569887D01*
X41361109Y-45563212D01*
X41362572Y-45503364D01*
X41362378Y-45496646D01*
X41344781Y-45282604D01*
X41343096Y-45272424D01*
X41291214Y-45065875D01*
X41287894Y-45056124D01*
X41202972Y-44860814D01*
X41198105Y-44851739D01*
X41133063Y-44751197D01*
X41122377Y-44741995D01*
X41112812Y-44746398D01*
X40372022Y-45487188D01*
X40364408Y-45501132D01*
X39634356Y-45501132D01*
X39635592Y-45498868D01*
X39635461Y-45497035D01*
X39631210Y-45490420D01*
X38889849Y-44749059D01*
X38878313Y-44742759D01*
X38866031Y-44752382D01*
X38818089Y-44822662D01*
X38813004Y-44831613D01*
X38723338Y-45024783D01*
X38719775Y-45034470D01*
X38662864Y-45239681D01*
X38660933Y-45249800D01*
X38638302Y-45461574D01*
X38638050Y-45471863D01*
X35651313Y-45471863D01*
X35603801Y-45436190D01*
X35596636Y-45430389D01*
X35554400Y-45393544D01*
X35516217Y-45333693D01*
X35516454Y-45262697D01*
X35555036Y-45203099D01*
X35619714Y-45173821D01*
X35682180Y-45180887D01*
X35729692Y-45199030D01*
X35734760Y-45200061D01*
X35734763Y-45200062D01*
X35842017Y-45221883D01*
X35948597Y-45243567D01*
X35953772Y-45243757D01*
X35953774Y-45243757D01*
X36166673Y-45251564D01*
X36166677Y-45251564D01*
X36171837Y-45251753D01*
X36176957Y-45251097D01*
X36176959Y-45251097D01*
X36388288Y-45224025D01*
X36388289Y-45224025D01*
X36393416Y-45223368D01*
X36460976Y-45203099D01*
X36602429Y-45160661D01*
X36602434Y-45160659D01*
X36607384Y-45159174D01*
X36807994Y-45060896D01*
X36989860Y-44931173D01*
X37148096Y-44773489D01*
X37207594Y-44690689D01*
X37275435Y-44596277D01*
X37278453Y-44592077D01*
X37333514Y-44480670D01*
X37375136Y-44396453D01*
X37375137Y-44396451D01*
X37377430Y-44391811D01*
X37382104Y-44376427D01*
X39241223Y-44376427D01*
X39247968Y-44388758D01*
X39987188Y-45127978D01*
X40001132Y-45135592D01*
X40002965Y-45135461D01*
X40009580Y-45131210D01*
X40753389Y-44387401D01*
X40760410Y-44374544D01*
X40753611Y-44365213D01*
X40749554Y-44362518D01*
X40563117Y-44259599D01*
X40553705Y-44255369D01*
X40352959Y-44184280D01*
X40342989Y-44181646D01*
X40133327Y-44144301D01*
X40123073Y-44143331D01*
X39910116Y-44140728D01*
X39899832Y-44141448D01*
X39689321Y-44173661D01*
X39679293Y-44176050D01*
X39476868Y-44242212D01*
X39467359Y-44246209D01*
X39278466Y-44344540D01*
X39269734Y-44350039D01*
X39249677Y-44365099D01*
X39241223Y-44376427D01*
X37382104Y-44376427D01*
X37442370Y-44178069D01*
X37471529Y-43956590D01*
X37472093Y-43933523D01*
X37473074Y-43893365D01*
X37473074Y-43893361D01*
X37473156Y-43890000D01*
X37454852Y-43667361D01*
X37400431Y-43450702D01*
X37311354Y-43245840D01*
X37248299Y-43148372D01*
X37192822Y-43062617D01*
X37192820Y-43062614D01*
X37190014Y-43058277D01*
X37039670Y-42893051D01*
X37035619Y-42889852D01*
X37035615Y-42889848D01*
X36868414Y-42757800D01*
X36868410Y-42757798D01*
X36864359Y-42754598D01*
X36859835Y-42752101D01*
X36859831Y-42752098D01*
X36808608Y-42723822D01*
X36758636Y-42673390D01*
X36743500Y-42613513D01*
X36743500Y-42388767D01*
X36744027Y-42377584D01*
X36745702Y-42370091D01*
X36743562Y-42302014D01*
X36743500Y-42298055D01*
X36743500Y-42270144D01*
X36742995Y-42266144D01*
X36742062Y-42254301D01*
X36741656Y-42241362D01*
X36740673Y-42210110D01*
X36735022Y-42190658D01*
X36731014Y-42171306D01*
X36729467Y-42159063D01*
X36728474Y-42151203D01*
X36725556Y-42143832D01*
X36712200Y-42110097D01*
X36708355Y-42098870D01*
X36704697Y-42086281D01*
X36696018Y-42056407D01*
X36691984Y-42049585D01*
X36691981Y-42049579D01*
X36685706Y-42038968D01*
X36677010Y-42021218D01*
X36672472Y-42009756D01*
X36672469Y-42009751D01*
X36669552Y-42002383D01*
X36656901Y-41984970D01*
X36643573Y-41966625D01*
X36637057Y-41956707D01*
X36618575Y-41925457D01*
X36614542Y-41918637D01*
X36600218Y-41904313D01*
X36587376Y-41889278D01*
X36583951Y-41884564D01*
X36575472Y-41872893D01*
X36541406Y-41844711D01*
X36532627Y-41836722D01*
X36405848Y-41709943D01*
X36371822Y-41647631D01*
X36376887Y-41576816D01*
X36421775Y-41518269D01*
X36525656Y-41444172D01*
X36525659Y-41444170D01*
X36529860Y-41441173D01*
X36688096Y-41283489D01*
X36693838Y-41275499D01*
X36815435Y-41106277D01*
X36818453Y-41102077D01*
X36882985Y-40971507D01*
X36915136Y-40906453D01*
X36915137Y-40906451D01*
X36917430Y-40901811D01*
X36982370Y-40688069D01*
X37011529Y-40466590D01*
X37011611Y-40463240D01*
X37013074Y-40403365D01*
X37013074Y-40403361D01*
X37013156Y-40400000D01*
X36994852Y-40177361D01*
X36940431Y-39960702D01*
X36851354Y-39755840D01*
X36791448Y-39663240D01*
X36732822Y-39572617D01*
X36732820Y-39572614D01*
X36730014Y-39568277D01*
X36726540Y-39564459D01*
X36726533Y-39564450D01*
X36594745Y-39419617D01*
X36563693Y-39355772D01*
X36572089Y-39285273D01*
X36617265Y-39230505D01*
X36671934Y-39209839D01*
X36678284Y-39209026D01*
X36678291Y-39209025D01*
X36683416Y-39208368D01*
X36688366Y-39206883D01*
X36892429Y-39145661D01*
X36892434Y-39145659D01*
X36897384Y-39144174D01*
X37097994Y-39045896D01*
X37162544Y-38999853D01*
X40339977Y-38999853D01*
X40345258Y-39006907D01*
X40506756Y-39101279D01*
X40516042Y-39105729D01*
X40715001Y-39181703D01*
X40724899Y-39184579D01*
X40933595Y-39227038D01*
X40943823Y-39228257D01*
X41156650Y-39236062D01*
X41166936Y-39235595D01*
X41378185Y-39208534D01*
X41388262Y-39206392D01*
X41592255Y-39145191D01*
X41601842Y-39141433D01*
X41793098Y-39047738D01*
X41801944Y-39042465D01*
X41849247Y-39008723D01*
X41857648Y-38998023D01*
X41850660Y-38984870D01*
X41112812Y-38247022D01*
X41098868Y-38239408D01*
X41097035Y-38239539D01*
X41090420Y-38243790D01*
X40346737Y-38987473D01*
X40339977Y-38999853D01*
X37162544Y-38999853D01*
X37279860Y-38916173D01*
X37438096Y-38758489D01*
X37497594Y-38675689D01*
X37565435Y-38581277D01*
X37568453Y-38577077D01*
X37570874Y-38572180D01*
X37665136Y-38381453D01*
X37665137Y-38381451D01*
X37667430Y-38376811D01*
X37708136Y-38242831D01*
X37730865Y-38168023D01*
X37730865Y-38168021D01*
X37732370Y-38163069D01*
X37761529Y-37941590D01*
X37763156Y-37875000D01*
X37744852Y-37652361D01*
X37690431Y-37435702D01*
X37601354Y-37230840D01*
X37527704Y-37116995D01*
X37482822Y-37047617D01*
X37482820Y-37047614D01*
X37480014Y-37043277D01*
X37329670Y-36878051D01*
X37325619Y-36874852D01*
X37325615Y-36874848D01*
X37158414Y-36742800D01*
X37158410Y-36742798D01*
X37154359Y-36739598D01*
X36958789Y-36631638D01*
X36953920Y-36629914D01*
X36953916Y-36629912D01*
X36939630Y-36624853D01*
X39239977Y-36624853D01*
X39245258Y-36631907D01*
X39406756Y-36726279D01*
X39416042Y-36730729D01*
X39615001Y-36806703D01*
X39624899Y-36809579D01*
X39833595Y-36852038D01*
X39843823Y-36853257D01*
X39917386Y-36855955D01*
X39984728Y-36878440D01*
X40029224Y-36933763D01*
X40036746Y-37004360D01*
X40016857Y-37052874D01*
X39918098Y-37197649D01*
X39913000Y-37206623D01*
X39823338Y-37399783D01*
X39819775Y-37409470D01*
X39762864Y-37614681D01*
X39760933Y-37624800D01*
X39738302Y-37836574D01*
X39738050Y-37846863D01*
X39750309Y-38059477D01*
X39751745Y-38069697D01*
X39798565Y-38277446D01*
X39801645Y-38287275D01*
X39881770Y-38484603D01*
X39886413Y-38493794D01*
X39966460Y-38624420D01*
X39976916Y-38633880D01*
X39985694Y-38630096D01*
X40739658Y-37876132D01*
X41464408Y-37876132D01*
X41464539Y-37877965D01*
X41468790Y-37884580D01*
X42210474Y-38626264D01*
X42222484Y-38632823D01*
X42234223Y-38623855D01*
X42265004Y-38581019D01*
X42270315Y-38572180D01*
X42364670Y-38381267D01*
X42368469Y-38371672D01*
X42430376Y-38167915D01*
X42432555Y-38157834D01*
X42460590Y-37944887D01*
X42461109Y-37938212D01*
X42462572Y-37878364D01*
X42462378Y-37871646D01*
X42444781Y-37657604D01*
X42443096Y-37647424D01*
X42391214Y-37440875D01*
X42387894Y-37431124D01*
X42302972Y-37235814D01*
X42298105Y-37226739D01*
X42233063Y-37126197D01*
X42222377Y-37116995D01*
X42212812Y-37121398D01*
X41472022Y-37862188D01*
X41464408Y-37876132D01*
X40739658Y-37876132D01*
X41853389Y-36762401D01*
X41860410Y-36749544D01*
X41853611Y-36740213D01*
X41849554Y-36737518D01*
X41663117Y-36634599D01*
X41653705Y-36630369D01*
X41452959Y-36559280D01*
X41442989Y-36556646D01*
X41233327Y-36519301D01*
X41223073Y-36518331D01*
X41185067Y-36517866D01*
X41117196Y-36497032D01*
X41071363Y-36442812D01*
X41062119Y-36372419D01*
X41084286Y-36318348D01*
X41165007Y-36206013D01*
X41170313Y-36197183D01*
X41264670Y-36006267D01*
X41268469Y-35996672D01*
X41330376Y-35792915D01*
X41332555Y-35782834D01*
X41360590Y-35569887D01*
X41361109Y-35563212D01*
X41362572Y-35503364D01*
X41362378Y-35496646D01*
X41344781Y-35282604D01*
X41343096Y-35272424D01*
X41291214Y-35065875D01*
X41287894Y-35056124D01*
X41202972Y-34860814D01*
X41198105Y-34851739D01*
X41133063Y-34751197D01*
X41122377Y-34741995D01*
X41112812Y-34746398D01*
X39246737Y-36612473D01*
X39239977Y-36624853D01*
X36939630Y-36624853D01*
X36753087Y-36558795D01*
X36753083Y-36558794D01*
X36748212Y-36557069D01*
X36743119Y-36556162D01*
X36743116Y-36556161D01*
X36533373Y-36518800D01*
X36533367Y-36518799D01*
X36528284Y-36517894D01*
X36454452Y-36516992D01*
X36310081Y-36515228D01*
X36310079Y-36515228D01*
X36304911Y-36515165D01*
X36084091Y-36548955D01*
X35871756Y-36618357D01*
X35673607Y-36721507D01*
X35669474Y-36724610D01*
X35669471Y-36724612D01*
X35499100Y-36852530D01*
X35494965Y-36855635D01*
X35340629Y-37017138D01*
X35337715Y-37021410D01*
X35337714Y-37021411D01*
X35294033Y-37085445D01*
X35214743Y-37201680D01*
X35120688Y-37404305D01*
X35060989Y-37619570D01*
X35037251Y-37841695D01*
X35037548Y-37846848D01*
X35037548Y-37846851D01*
X35043011Y-37941590D01*
X35050110Y-38064715D01*
X35051247Y-38069761D01*
X35051248Y-38069767D01*
X35071119Y-38157939D01*
X35099222Y-38282639D01*
X35139346Y-38381453D01*
X35174408Y-38467800D01*
X35183266Y-38489616D01*
X35299987Y-38680088D01*
X35303367Y-38683990D01*
X35442866Y-38845032D01*
X35442869Y-38845035D01*
X35446250Y-38848938D01*
X35450185Y-38852205D01*
X35484853Y-38914145D01*
X35480530Y-38985010D01*
X35438580Y-39042287D01*
X35381078Y-39066765D01*
X35339205Y-39073172D01*
X35339200Y-39073173D01*
X35334091Y-39073955D01*
X35121756Y-39143357D01*
X35088437Y-39160702D01*
X34943672Y-39236062D01*
X34923607Y-39246507D01*
X34919474Y-39249610D01*
X34919471Y-39249612D01*
X34749100Y-39377530D01*
X34744965Y-39380635D01*
X34741393Y-39384373D01*
X34637993Y-39492575D01*
X34590629Y-39542138D01*
X34464743Y-39726680D01*
X34370688Y-39929305D01*
X34310989Y-40144570D01*
X34287251Y-40366695D01*
X34287548Y-40371848D01*
X34287548Y-40371851D01*
X34293011Y-40466590D01*
X34300110Y-40589715D01*
X34301247Y-40594761D01*
X34301248Y-40594767D01*
X34317181Y-40665463D01*
X34349222Y-40807639D01*
X34433266Y-41014616D01*
X34549987Y-41205088D01*
X34696250Y-41373938D01*
X34868126Y-41516632D01*
X34872593Y-41519242D01*
X34954070Y-41566853D01*
X35002794Y-41618491D01*
X35016500Y-41675641D01*
X35016500Y-41771233D01*
X35015973Y-41782416D01*
X35014298Y-41789909D01*
X35014547Y-41797835D01*
X35014547Y-41797836D01*
X35016438Y-41857986D01*
X35016500Y-41861945D01*
X35016500Y-41889856D01*
X35016997Y-41893790D01*
X35016997Y-41893791D01*
X35017005Y-41893856D01*
X35017938Y-41905693D01*
X35019327Y-41949889D01*
X35024978Y-41969339D01*
X35028987Y-41988700D01*
X35031526Y-42008797D01*
X35034445Y-42016168D01*
X35034445Y-42016170D01*
X35047804Y-42049912D01*
X35051649Y-42061142D01*
X35061771Y-42095983D01*
X35063982Y-42103593D01*
X35068015Y-42110412D01*
X35068017Y-42110417D01*
X35074293Y-42121028D01*
X35082988Y-42138776D01*
X35090448Y-42157617D01*
X35095110Y-42164033D01*
X35095110Y-42164034D01*
X35116436Y-42193387D01*
X35122952Y-42203307D01*
X35131659Y-42218029D01*
X35145458Y-42241362D01*
X35159779Y-42255683D01*
X35172619Y-42270716D01*
X35184528Y-42287107D01*
X35211653Y-42309547D01*
X35218605Y-42315298D01*
X35227384Y-42323288D01*
X35431110Y-42527014D01*
X35465136Y-42589326D01*
X35460071Y-42660141D01*
X35417524Y-42716977D01*
X35400200Y-42727869D01*
X35383607Y-42736507D01*
X35379474Y-42739610D01*
X35379471Y-42739612D01*
X35209100Y-42867530D01*
X35204965Y-42870635D01*
X35050629Y-43032138D01*
X34924743Y-43216680D01*
X34877716Y-43317992D01*
X34860845Y-43354338D01*
X34830688Y-43419305D01*
X34770989Y-43634570D01*
X34747251Y-43856695D01*
X34747548Y-43861848D01*
X34747548Y-43861851D01*
X34753011Y-43956590D01*
X34760110Y-44079715D01*
X34761247Y-44084761D01*
X34761248Y-44084767D01*
X34774665Y-44144301D01*
X34809222Y-44297639D01*
X34811167Y-44302429D01*
X34812863Y-44306607D01*
X34819957Y-44377248D01*
X34787734Y-44440511D01*
X34726423Y-44476310D01*
X34655491Y-44473278D01*
X34600308Y-44435838D01*
X34523808Y-44346268D01*
X34518072Y-44339032D01*
X34220191Y-43933516D01*
X34215006Y-43925885D01*
X34194607Y-43893365D01*
X34056072Y-43672522D01*
X33947638Y-43499663D01*
X33943021Y-43491666D01*
X33735082Y-43098938D01*
X33707587Y-43047008D01*
X33703568Y-43038697D01*
X33501325Y-42577973D01*
X33497926Y-42569388D01*
X33360439Y-42181137D01*
X33329969Y-42095091D01*
X33327208Y-42086281D01*
X33317168Y-42049579D01*
X33275508Y-41897299D01*
X33194444Y-41600977D01*
X33192335Y-41591987D01*
X33095465Y-41098238D01*
X33094021Y-41089117D01*
X33033576Y-40589625D01*
X33032803Y-40580424D01*
X33009101Y-40077833D01*
X33009004Y-40068599D01*
X33021275Y-39600000D01*
X33022175Y-39565613D01*
X33022755Y-39556400D01*
X33040626Y-39377361D01*
X33051881Y-39264598D01*
X33072727Y-39055746D01*
X33073980Y-39046597D01*
X33160487Y-38550937D01*
X33162407Y-38541905D01*
X33284981Y-38053917D01*
X33287557Y-38045049D01*
X33310771Y-37974858D01*
X33445544Y-37567340D01*
X33448762Y-37558688D01*
X33497626Y-37440720D01*
X33641309Y-37093838D01*
X33645152Y-37085445D01*
X33871228Y-36635943D01*
X33875677Y-36627851D01*
X34028550Y-36372419D01*
X34134063Y-36196119D01*
X34139087Y-36188382D01*
X34182080Y-36127210D01*
X34428406Y-35776723D01*
X34433989Y-35769368D01*
X34677494Y-35471863D01*
X38638050Y-35471863D01*
X38650309Y-35684477D01*
X38651745Y-35694697D01*
X38698565Y-35902446D01*
X38701645Y-35912275D01*
X38781770Y-36109603D01*
X38786413Y-36118794D01*
X38866460Y-36249420D01*
X38876916Y-36258880D01*
X38885694Y-36255096D01*
X39627978Y-35512812D01*
X39635592Y-35498868D01*
X39635461Y-35497035D01*
X39631210Y-35490420D01*
X38889849Y-34749059D01*
X38878313Y-34742759D01*
X38866031Y-34752382D01*
X38818089Y-34822662D01*
X38813004Y-34831613D01*
X38723338Y-35024783D01*
X38719775Y-35034470D01*
X38662864Y-35239681D01*
X38660933Y-35249800D01*
X38638302Y-35461574D01*
X38638050Y-35471863D01*
X34677494Y-35471863D01*
X34752672Y-35380013D01*
X34758779Y-35373086D01*
X35105119Y-35008121D01*
X35111716Y-35001660D01*
X35483868Y-34663028D01*
X35490921Y-34657068D01*
X35848835Y-34376427D01*
X39241223Y-34376427D01*
X39247968Y-34388758D01*
X39987188Y-35127978D01*
X40001132Y-35135592D01*
X40002965Y-35135461D01*
X40009580Y-35131210D01*
X40753389Y-34387401D01*
X40760410Y-34374544D01*
X40753611Y-34365213D01*
X40749554Y-34362518D01*
X40563117Y-34259599D01*
X40553705Y-34255369D01*
X40352959Y-34184280D01*
X40342989Y-34181646D01*
X40133327Y-34144301D01*
X40123073Y-34143331D01*
X39910116Y-34140728D01*
X39899832Y-34141448D01*
X39689321Y-34173661D01*
X39679293Y-34176050D01*
X39476868Y-34242212D01*
X39467359Y-34246209D01*
X39278466Y-34344540D01*
X39269734Y-34350039D01*
X39249677Y-34365099D01*
X39241223Y-34376427D01*
X35848835Y-34376427D01*
X35886863Y-34346609D01*
X35894334Y-34341181D01*
X36311954Y-34060552D01*
X36319802Y-34055686D01*
X36378418Y-34022252D01*
X36756860Y-33806393D01*
X36765042Y-33802116D01*
X36835340Y-33768586D01*
X37009808Y-33685369D01*
X37219172Y-33585508D01*
X37227646Y-33581841D01*
X37696424Y-33399072D01*
X37705145Y-33396035D01*
X38186049Y-33248089D01*
X38194965Y-33245700D01*
X38685436Y-33133367D01*
X38694486Y-33131641D01*
X39191847Y-33055533D01*
X39201008Y-33054473D01*
X39451821Y-33034734D01*
X39702629Y-33014995D01*
X39711855Y-33014609D01*
X39987590Y-33013165D01*
X40214992Y-33011974D01*
X40224211Y-33012264D01*
G37*
G04 #@! TD.AperFunction*
M02*
