G04 #@! TF.GenerationSoftware,KiCad,Pcbnew,(6.0.7-1)-1*
G04 #@! TF.CreationDate,2022-08-21T00:27:36+09:30*
G04 #@! TF.ProjectId,volca-trs,766f6c63-612d-4747-9273-2e6b69636164,rev?*
G04 #@! TF.SameCoordinates,Original*
G04 #@! TF.FileFunction,Copper,L1,Top*
G04 #@! TF.FilePolarity,Positive*
%FSLAX46Y46*%
G04 Gerber Fmt 4.6, Leading zero omitted, Abs format (unit mm)*
G04 Created by KiCad (PCBNEW (6.0.7-1)-1) date 2022-08-21 00:27:36*
%MOMM*%
%LPD*%
G01*
G04 APERTURE LIST*
G04 #@! TA.AperFunction,ComponentPad*
%ADD10C,1.700000*%
G04 #@! TD*
G04 APERTURE END LIST*
D10*
X40000000Y-45500000D03*
X43890000Y-43890000D03*
X36110000Y-43890000D03*
X40000000Y-35500000D03*
X43550000Y-39600000D03*
X42700000Y-42125000D03*
X36400000Y-37875000D03*
X35650000Y-40400000D03*
X41100000Y-37875000D03*
G04 #@! TA.AperFunction,Conductor*
G36*
X40224211Y-33012264D02*
G01*
X40726212Y-33046486D01*
X40735367Y-33047448D01*
X41022766Y-33088351D01*
X41233511Y-33118345D01*
X41242599Y-33119980D01*
X41530525Y-33182758D01*
X41734216Y-33227170D01*
X41743145Y-33229463D01*
X42225576Y-33372365D01*
X42234315Y-33375306D01*
X42705003Y-33553165D01*
X42713484Y-33556729D01*
X43169899Y-33768590D01*
X43178119Y-33772779D01*
X43617753Y-34017476D01*
X43625628Y-34022245D01*
X44046190Y-34298502D01*
X44053708Y-34303846D01*
X44452892Y-34610151D01*
X44459990Y-34616022D01*
X44835688Y-34950756D01*
X44842324Y-34957120D01*
X45192479Y-35318452D01*
X45198654Y-35325310D01*
X45403153Y-35569887D01*
X45521406Y-35711316D01*
X45527066Y-35718613D01*
X45820672Y-36127210D01*
X45825782Y-36134901D01*
X45938199Y-36318348D01*
X46083931Y-36556161D01*
X46088678Y-36563908D01*
X46093208Y-36571948D01*
X46169168Y-36719118D01*
X46323982Y-37019065D01*
X46327913Y-37027420D01*
X46525313Y-37490216D01*
X46528623Y-37498837D01*
X46579496Y-37647424D01*
X46681340Y-37944887D01*
X46691601Y-37974858D01*
X46694270Y-37983698D01*
X46716850Y-38069767D01*
X46816501Y-38449612D01*
X46821951Y-38470388D01*
X46823965Y-38479400D01*
X46915656Y-38974119D01*
X46917005Y-38983255D01*
X46972217Y-39483366D01*
X46972893Y-39492575D01*
X46976956Y-39603365D01*
X46987578Y-39893023D01*
X46991355Y-39996034D01*
X46991397Y-40003936D01*
X46986006Y-40209829D01*
X46982022Y-40361953D01*
X46981567Y-40369842D01*
X46946042Y-40767892D01*
X46936781Y-40871661D01*
X46935624Y-40880822D01*
X46854313Y-41377359D01*
X46852488Y-41386411D01*
X46735027Y-41875670D01*
X46732543Y-41884564D01*
X46641823Y-42168829D01*
X46593653Y-42319767D01*
X46579574Y-42363881D01*
X46576447Y-42372566D01*
X46496613Y-42571161D01*
X46388774Y-42839418D01*
X46385018Y-42847853D01*
X46163668Y-43299684D01*
X46159305Y-43307822D01*
X45905451Y-43742242D01*
X45900503Y-43750039D01*
X45804310Y-43890000D01*
X45631495Y-44141448D01*
X45615516Y-44164697D01*
X45610012Y-44172109D01*
X45471868Y-44344540D01*
X45397573Y-44437276D01*
X45339371Y-44477933D01*
X45268427Y-44480670D01*
X45207266Y-44444617D01*
X45175305Y-44381221D01*
X45178681Y-44321866D01*
X45220865Y-44183023D01*
X45220865Y-44183021D01*
X45222370Y-44178069D01*
X45251529Y-43956590D01*
X45252093Y-43933523D01*
X45253074Y-43893365D01*
X45253074Y-43893361D01*
X45253156Y-43890000D01*
X45234852Y-43667361D01*
X45180431Y-43450702D01*
X45091354Y-43245840D01*
X44970014Y-43058277D01*
X44819670Y-42893051D01*
X44815619Y-42889852D01*
X44815615Y-42889848D01*
X44648414Y-42757800D01*
X44648410Y-42757798D01*
X44644359Y-42754598D01*
X44448789Y-42646638D01*
X44443920Y-42644914D01*
X44443916Y-42644912D01*
X44243087Y-42573795D01*
X44243083Y-42573794D01*
X44238212Y-42572069D01*
X44233119Y-42571162D01*
X44233116Y-42571161D01*
X44135163Y-42553713D01*
X44071605Y-42522075D01*
X44035242Y-42461098D01*
X44034393Y-42413335D01*
X44032370Y-42413069D01*
X44061092Y-42194908D01*
X44061529Y-42191590D01*
X44063156Y-42125000D01*
X44044852Y-41902361D01*
X43990431Y-41685702D01*
X43901354Y-41480840D01*
X43840265Y-41386411D01*
X43782822Y-41297617D01*
X43782820Y-41297614D01*
X43780014Y-41293277D01*
X43776540Y-41289459D01*
X43776533Y-41289450D01*
X43655185Y-41156090D01*
X43624133Y-41092244D01*
X43632529Y-41021746D01*
X43677706Y-40966978D01*
X43732367Y-40946313D01*
X43797504Y-40937968D01*
X43828289Y-40934025D01*
X43828292Y-40934024D01*
X43833416Y-40933368D01*
X43923128Y-40906453D01*
X44042429Y-40870661D01*
X44042434Y-40870659D01*
X44047384Y-40869174D01*
X44247994Y-40770896D01*
X44429860Y-40641173D01*
X44476429Y-40594767D01*
X44584435Y-40487137D01*
X44588096Y-40483489D01*
X44647594Y-40400689D01*
X44715435Y-40306277D01*
X44718453Y-40302077D01*
X44777541Y-40182522D01*
X44815136Y-40106453D01*
X44815137Y-40106451D01*
X44817430Y-40101811D01*
X44882370Y-39888069D01*
X44911529Y-39666590D01*
X44913156Y-39600000D01*
X44894852Y-39377361D01*
X44840431Y-39160702D01*
X44751354Y-38955840D01*
X44630014Y-38768277D01*
X44479670Y-38603051D01*
X44475619Y-38599852D01*
X44475615Y-38599848D01*
X44308414Y-38467800D01*
X44308410Y-38467798D01*
X44304359Y-38464598D01*
X44108789Y-38356638D01*
X44103920Y-38354914D01*
X44103916Y-38354912D01*
X43903087Y-38283795D01*
X43903083Y-38283794D01*
X43898212Y-38282069D01*
X43893119Y-38281162D01*
X43893116Y-38281161D01*
X43683373Y-38243800D01*
X43683367Y-38243799D01*
X43678284Y-38242894D01*
X43604452Y-38241992D01*
X43460081Y-38240228D01*
X43460079Y-38240228D01*
X43454911Y-38240165D01*
X43234091Y-38273955D01*
X43021756Y-38343357D01*
X42823607Y-38446507D01*
X42819474Y-38449610D01*
X42819471Y-38449612D01*
X42649100Y-38577530D01*
X42644965Y-38580635D01*
X42490629Y-38742138D01*
X42487715Y-38746410D01*
X42487714Y-38746411D01*
X42475404Y-38764457D01*
X42364743Y-38926680D01*
X42331627Y-38998023D01*
X42281632Y-39105729D01*
X42270688Y-39129305D01*
X42210989Y-39344570D01*
X42187251Y-39566695D01*
X42187548Y-39571848D01*
X42187548Y-39571851D01*
X42193011Y-39666590D01*
X42200110Y-39789715D01*
X42201247Y-39794761D01*
X42201248Y-39794767D01*
X42221119Y-39882939D01*
X42249222Y-40007639D01*
X42333266Y-40214616D01*
X42335965Y-40219020D01*
X42444814Y-40396646D01*
X42449987Y-40405088D01*
X42594080Y-40571433D01*
X42623562Y-40636017D01*
X42613448Y-40706289D01*
X42566946Y-40759937D01*
X42517901Y-40778479D01*
X42460341Y-40787287D01*
X42384091Y-40798955D01*
X42171756Y-40868357D01*
X41973607Y-40971507D01*
X41969474Y-40974610D01*
X41969471Y-40974612D01*
X41799100Y-41102530D01*
X41794965Y-41105635D01*
X41640629Y-41267138D01*
X41637715Y-41271410D01*
X41637714Y-41271411D01*
X41565441Y-41377359D01*
X41514743Y-41451680D01*
X41483382Y-41519242D01*
X41431422Y-41631181D01*
X41420688Y-41654305D01*
X41360989Y-41869570D01*
X41337251Y-42091695D01*
X41337548Y-42096848D01*
X41337548Y-42096851D01*
X41343011Y-42191590D01*
X41350110Y-42314715D01*
X41351247Y-42319761D01*
X41351248Y-42319767D01*
X41361190Y-42363881D01*
X41399222Y-42532639D01*
X41444811Y-42644912D01*
X41481034Y-42734118D01*
X41483266Y-42739616D01*
X41485965Y-42744020D01*
X41561652Y-42867530D01*
X41599987Y-42930088D01*
X41746250Y-43098938D01*
X41918126Y-43241632D01*
X42111000Y-43354338D01*
X42319692Y-43434030D01*
X42458877Y-43462348D01*
X42521640Y-43495528D01*
X42556502Y-43557376D01*
X42555172Y-43619487D01*
X42550989Y-43634570D01*
X42550441Y-43639700D01*
X42550440Y-43639704D01*
X42546933Y-43672522D01*
X42527251Y-43856695D01*
X42527548Y-43861848D01*
X42527548Y-43861851D01*
X42533011Y-43956590D01*
X42540110Y-44079715D01*
X42541247Y-44084761D01*
X42541248Y-44084767D01*
X42554665Y-44144301D01*
X42589222Y-44297639D01*
X42627461Y-44391811D01*
X42663543Y-44480670D01*
X42673266Y-44504616D01*
X42789987Y-44695088D01*
X42936250Y-44863938D01*
X43108126Y-45006632D01*
X43301000Y-45119338D01*
X43305825Y-45121180D01*
X43305826Y-45121181D01*
X43343222Y-45135461D01*
X43509692Y-45199030D01*
X43514760Y-45200061D01*
X43514763Y-45200062D01*
X43622017Y-45221883D01*
X43728597Y-45243567D01*
X43733772Y-45243757D01*
X43733774Y-45243757D01*
X43946673Y-45251564D01*
X43946677Y-45251564D01*
X43951837Y-45251753D01*
X43956957Y-45251097D01*
X43956959Y-45251097D01*
X44168288Y-45224025D01*
X44168289Y-45224025D01*
X44173416Y-45223368D01*
X44240976Y-45203099D01*
X44321985Y-45178795D01*
X44392981Y-45178379D01*
X44452931Y-45216411D01*
X44482803Y-45280817D01*
X44473112Y-45351149D01*
X44436974Y-45397815D01*
X44230525Y-45563212D01*
X44172111Y-45610010D01*
X44164697Y-45615516D01*
X43750039Y-45900503D01*
X43742242Y-45905451D01*
X43307822Y-46159305D01*
X43299684Y-46163668D01*
X42847853Y-46385018D01*
X42839419Y-46388774D01*
X42625390Y-46474813D01*
X42372570Y-46576446D01*
X42363886Y-46579572D01*
X42194209Y-46633723D01*
X41884564Y-46732543D01*
X41875670Y-46735027D01*
X41386411Y-46852488D01*
X41377359Y-46854313D01*
X40880822Y-46935624D01*
X40871661Y-46936781D01*
X40842571Y-46939377D01*
X40671423Y-46954652D01*
X40601795Y-46940785D01*
X40550716Y-46891475D01*
X40534405Y-46822377D01*
X40558041Y-46755430D01*
X40604790Y-46716000D01*
X40693097Y-46672738D01*
X40701944Y-46667465D01*
X40749247Y-46633723D01*
X40757648Y-46623023D01*
X40750660Y-46609870D01*
X40012812Y-45872022D01*
X39998868Y-45864408D01*
X39997035Y-45864539D01*
X39990420Y-45868790D01*
X39246737Y-46612473D01*
X39239977Y-46624853D01*
X39245257Y-46631906D01*
X39403371Y-46724301D01*
X39452094Y-46775940D01*
X39465165Y-46845723D01*
X39438433Y-46911495D01*
X39380386Y-46952373D01*
X39323355Y-46958011D01*
X38954163Y-46909406D01*
X38838617Y-46894194D01*
X38829512Y-46892654D01*
X38336814Y-46790621D01*
X38327846Y-46788418D01*
X37843957Y-46650579D01*
X37835175Y-46647726D01*
X37621440Y-46569510D01*
X37362657Y-46474809D01*
X37354127Y-46471328D01*
X36895541Y-46264269D01*
X36887270Y-46260163D01*
X36445091Y-46020079D01*
X36437143Y-46015378D01*
X36013747Y-45743563D01*
X36006164Y-45738293D01*
X35651313Y-45471863D01*
X38638050Y-45471863D01*
X38650309Y-45684477D01*
X38651745Y-45694697D01*
X38698565Y-45902446D01*
X38701645Y-45912275D01*
X38781770Y-46109603D01*
X38786413Y-46118794D01*
X38866460Y-46249420D01*
X38876916Y-46258880D01*
X38885694Y-46255096D01*
X39627978Y-45512812D01*
X39634356Y-45501132D01*
X40364408Y-45501132D01*
X40364539Y-45502965D01*
X40368790Y-45509580D01*
X41110474Y-46251264D01*
X41122484Y-46257823D01*
X41134223Y-46248855D01*
X41165004Y-46206019D01*
X41170315Y-46197180D01*
X41264670Y-46006267D01*
X41268469Y-45996672D01*
X41330376Y-45792915D01*
X41332555Y-45782834D01*
X41360590Y-45569887D01*
X41361109Y-45563212D01*
X41362572Y-45503364D01*
X41362378Y-45496646D01*
X41344781Y-45282604D01*
X41343096Y-45272424D01*
X41291214Y-45065875D01*
X41287894Y-45056124D01*
X41202972Y-44860814D01*
X41198105Y-44851739D01*
X41133063Y-44751197D01*
X41122377Y-44741995D01*
X41112812Y-44746398D01*
X40372022Y-45487188D01*
X40364408Y-45501132D01*
X39634356Y-45501132D01*
X39635592Y-45498868D01*
X39635461Y-45497035D01*
X39631210Y-45490420D01*
X38889849Y-44749059D01*
X38878313Y-44742759D01*
X38866031Y-44752382D01*
X38818089Y-44822662D01*
X38813004Y-44831613D01*
X38723338Y-45024783D01*
X38719775Y-45034470D01*
X38662864Y-45239681D01*
X38660933Y-45249800D01*
X38638302Y-45461574D01*
X38638050Y-45471863D01*
X35651313Y-45471863D01*
X35603801Y-45436190D01*
X35596636Y-45430389D01*
X35554400Y-45393544D01*
X35516217Y-45333693D01*
X35516454Y-45262697D01*
X35555036Y-45203099D01*
X35619714Y-45173821D01*
X35682180Y-45180887D01*
X35729692Y-45199030D01*
X35734760Y-45200061D01*
X35734763Y-45200062D01*
X35842017Y-45221883D01*
X35948597Y-45243567D01*
X35953772Y-45243757D01*
X35953774Y-45243757D01*
X36166673Y-45251564D01*
X36166677Y-45251564D01*
X36171837Y-45251753D01*
X36176957Y-45251097D01*
X36176959Y-45251097D01*
X36388288Y-45224025D01*
X36388289Y-45224025D01*
X36393416Y-45223368D01*
X36460976Y-45203099D01*
X36602429Y-45160661D01*
X36602434Y-45160659D01*
X36607384Y-45159174D01*
X36807994Y-45060896D01*
X36989860Y-44931173D01*
X37148096Y-44773489D01*
X37207594Y-44690689D01*
X37275435Y-44596277D01*
X37278453Y-44592077D01*
X37333514Y-44480670D01*
X37375136Y-44396453D01*
X37375137Y-44396451D01*
X37377430Y-44391811D01*
X37382104Y-44376427D01*
X39241223Y-44376427D01*
X39247968Y-44388758D01*
X39987188Y-45127978D01*
X40001132Y-45135592D01*
X40002965Y-45135461D01*
X40009580Y-45131210D01*
X40753389Y-44387401D01*
X40760410Y-44374544D01*
X40753611Y-44365213D01*
X40749554Y-44362518D01*
X40563117Y-44259599D01*
X40553705Y-44255369D01*
X40352959Y-44184280D01*
X40342989Y-44181646D01*
X40133327Y-44144301D01*
X40123073Y-44143331D01*
X39910116Y-44140728D01*
X39899832Y-44141448D01*
X39689321Y-44173661D01*
X39679293Y-44176050D01*
X39476868Y-44242212D01*
X39467359Y-44246209D01*
X39278466Y-44344540D01*
X39269734Y-44350039D01*
X39249677Y-44365099D01*
X39241223Y-44376427D01*
X37382104Y-44376427D01*
X37442370Y-44178069D01*
X37471529Y-43956590D01*
X37472093Y-43933523D01*
X37473074Y-43893365D01*
X37473074Y-43893361D01*
X37473156Y-43890000D01*
X37454852Y-43667361D01*
X37400431Y-43450702D01*
X37311354Y-43245840D01*
X37190014Y-43058277D01*
X37039670Y-42893051D01*
X37035619Y-42889852D01*
X37035615Y-42889848D01*
X36868414Y-42757800D01*
X36868410Y-42757798D01*
X36864359Y-42754598D01*
X36668789Y-42646638D01*
X36663920Y-42644914D01*
X36663916Y-42644912D01*
X36463087Y-42573795D01*
X36463083Y-42573794D01*
X36458212Y-42572069D01*
X36453119Y-42571162D01*
X36453116Y-42571161D01*
X36243373Y-42533800D01*
X36243367Y-42533799D01*
X36238284Y-42532894D01*
X36164452Y-42531992D01*
X36020081Y-42530228D01*
X36020079Y-42530228D01*
X36014911Y-42530165D01*
X35794091Y-42563955D01*
X35581756Y-42633357D01*
X35383607Y-42736507D01*
X35379474Y-42739610D01*
X35379471Y-42739612D01*
X35209100Y-42867530D01*
X35204965Y-42870635D01*
X35050629Y-43032138D01*
X34924743Y-43216680D01*
X34877716Y-43317992D01*
X34860845Y-43354338D01*
X34830688Y-43419305D01*
X34770989Y-43634570D01*
X34747251Y-43856695D01*
X34747548Y-43861848D01*
X34747548Y-43861851D01*
X34753011Y-43956590D01*
X34760110Y-44079715D01*
X34761247Y-44084761D01*
X34761248Y-44084767D01*
X34774665Y-44144301D01*
X34809222Y-44297639D01*
X34811167Y-44302429D01*
X34812863Y-44306607D01*
X34819957Y-44377248D01*
X34787734Y-44440511D01*
X34726423Y-44476310D01*
X34655491Y-44473278D01*
X34600308Y-44435838D01*
X34523808Y-44346268D01*
X34518072Y-44339032D01*
X34220191Y-43933516D01*
X34215006Y-43925885D01*
X34194607Y-43893365D01*
X34056072Y-43672522D01*
X33947638Y-43499663D01*
X33943021Y-43491666D01*
X33713553Y-43058277D01*
X33707587Y-43047008D01*
X33703568Y-43038697D01*
X33501325Y-42577973D01*
X33497926Y-42569388D01*
X33329969Y-42095093D01*
X33327208Y-42086281D01*
X33194444Y-41600977D01*
X33192335Y-41591987D01*
X33095465Y-41098238D01*
X33094021Y-41089117D01*
X33033576Y-40589625D01*
X33032803Y-40580424D01*
X33022724Y-40366695D01*
X34287251Y-40366695D01*
X34287548Y-40371848D01*
X34287548Y-40371851D01*
X34298338Y-40558985D01*
X34300110Y-40589715D01*
X34301247Y-40594761D01*
X34301248Y-40594767D01*
X34312382Y-40644171D01*
X34349222Y-40807639D01*
X34433266Y-41014616D01*
X34549987Y-41205088D01*
X34696250Y-41373938D01*
X34868126Y-41516632D01*
X35061000Y-41629338D01*
X35269692Y-41709030D01*
X35274760Y-41710061D01*
X35274763Y-41710062D01*
X35382017Y-41731883D01*
X35488597Y-41753567D01*
X35493772Y-41753757D01*
X35493774Y-41753757D01*
X35706673Y-41761564D01*
X35706677Y-41761564D01*
X35711837Y-41761753D01*
X35716957Y-41761097D01*
X35716959Y-41761097D01*
X35928288Y-41734025D01*
X35928289Y-41734025D01*
X35933416Y-41733368D01*
X35938366Y-41731883D01*
X36142429Y-41670661D01*
X36142434Y-41670659D01*
X36147384Y-41669174D01*
X36347994Y-41570896D01*
X36529860Y-41441173D01*
X36688096Y-41283489D01*
X36747594Y-41200689D01*
X36815435Y-41106277D01*
X36818453Y-41102077D01*
X36882985Y-40971507D01*
X36915136Y-40906453D01*
X36915137Y-40906451D01*
X36917430Y-40901811D01*
X36982370Y-40688069D01*
X37011529Y-40466590D01*
X37011611Y-40463240D01*
X37013074Y-40403365D01*
X37013074Y-40403361D01*
X37013156Y-40400000D01*
X36994852Y-40177361D01*
X36940431Y-39960702D01*
X36851354Y-39755840D01*
X36791448Y-39663240D01*
X36732822Y-39572617D01*
X36732820Y-39572614D01*
X36730014Y-39568277D01*
X36726540Y-39564459D01*
X36726533Y-39564450D01*
X36594745Y-39419617D01*
X36563693Y-39355772D01*
X36572089Y-39285273D01*
X36617265Y-39230505D01*
X36671934Y-39209839D01*
X36678284Y-39209026D01*
X36678291Y-39209025D01*
X36683416Y-39208368D01*
X36688366Y-39206883D01*
X36892429Y-39145661D01*
X36892434Y-39145659D01*
X36897384Y-39144174D01*
X37097994Y-39045896D01*
X37162544Y-38999853D01*
X40339977Y-38999853D01*
X40345258Y-39006907D01*
X40506756Y-39101279D01*
X40516042Y-39105729D01*
X40715001Y-39181703D01*
X40724899Y-39184579D01*
X40933595Y-39227038D01*
X40943823Y-39228257D01*
X41156650Y-39236062D01*
X41166936Y-39235595D01*
X41378185Y-39208534D01*
X41388262Y-39206392D01*
X41592255Y-39145191D01*
X41601842Y-39141433D01*
X41793098Y-39047738D01*
X41801944Y-39042465D01*
X41849247Y-39008723D01*
X41857648Y-38998023D01*
X41850660Y-38984870D01*
X41112812Y-38247022D01*
X41098868Y-38239408D01*
X41097035Y-38239539D01*
X41090420Y-38243790D01*
X40346737Y-38987473D01*
X40339977Y-38999853D01*
X37162544Y-38999853D01*
X37279860Y-38916173D01*
X37438096Y-38758489D01*
X37497594Y-38675689D01*
X37565435Y-38581277D01*
X37568453Y-38577077D01*
X37570874Y-38572180D01*
X37665136Y-38381453D01*
X37665137Y-38381451D01*
X37667430Y-38376811D01*
X37708136Y-38242831D01*
X37730865Y-38168023D01*
X37730865Y-38168021D01*
X37732370Y-38163069D01*
X37761529Y-37941590D01*
X37763156Y-37875000D01*
X37744852Y-37652361D01*
X37690431Y-37435702D01*
X37601354Y-37230840D01*
X37527704Y-37116995D01*
X37482822Y-37047617D01*
X37482820Y-37047614D01*
X37480014Y-37043277D01*
X37329670Y-36878051D01*
X37325619Y-36874852D01*
X37325615Y-36874848D01*
X37158414Y-36742800D01*
X37158410Y-36742798D01*
X37154359Y-36739598D01*
X36958789Y-36631638D01*
X36953920Y-36629914D01*
X36953916Y-36629912D01*
X36939630Y-36624853D01*
X39239977Y-36624853D01*
X39245258Y-36631907D01*
X39406756Y-36726279D01*
X39416042Y-36730729D01*
X39615001Y-36806703D01*
X39624899Y-36809579D01*
X39833595Y-36852038D01*
X39843823Y-36853257D01*
X39917386Y-36855955D01*
X39984728Y-36878440D01*
X40029224Y-36933763D01*
X40036746Y-37004360D01*
X40016857Y-37052874D01*
X39918098Y-37197649D01*
X39913000Y-37206623D01*
X39823338Y-37399783D01*
X39819775Y-37409470D01*
X39762864Y-37614681D01*
X39760933Y-37624800D01*
X39738302Y-37836574D01*
X39738050Y-37846863D01*
X39750309Y-38059477D01*
X39751745Y-38069697D01*
X39798565Y-38277446D01*
X39801645Y-38287275D01*
X39881770Y-38484603D01*
X39886413Y-38493794D01*
X39966460Y-38624420D01*
X39976916Y-38633880D01*
X39985694Y-38630096D01*
X40739658Y-37876132D01*
X41464408Y-37876132D01*
X41464539Y-37877965D01*
X41468790Y-37884580D01*
X42210474Y-38626264D01*
X42222484Y-38632823D01*
X42234223Y-38623855D01*
X42265004Y-38581019D01*
X42270315Y-38572180D01*
X42364670Y-38381267D01*
X42368469Y-38371672D01*
X42430376Y-38167915D01*
X42432555Y-38157834D01*
X42460590Y-37944887D01*
X42461109Y-37938212D01*
X42462572Y-37878364D01*
X42462378Y-37871646D01*
X42444781Y-37657604D01*
X42443096Y-37647424D01*
X42391214Y-37440875D01*
X42387894Y-37431124D01*
X42302972Y-37235814D01*
X42298105Y-37226739D01*
X42233063Y-37126197D01*
X42222377Y-37116995D01*
X42212812Y-37121398D01*
X41472022Y-37862188D01*
X41464408Y-37876132D01*
X40739658Y-37876132D01*
X41853389Y-36762401D01*
X41860410Y-36749544D01*
X41853611Y-36740213D01*
X41849554Y-36737518D01*
X41663117Y-36634599D01*
X41653705Y-36630369D01*
X41452959Y-36559280D01*
X41442989Y-36556646D01*
X41233327Y-36519301D01*
X41223073Y-36518331D01*
X41185067Y-36517866D01*
X41117196Y-36497032D01*
X41071363Y-36442812D01*
X41062119Y-36372419D01*
X41084286Y-36318348D01*
X41165007Y-36206013D01*
X41170313Y-36197183D01*
X41264670Y-36006267D01*
X41268469Y-35996672D01*
X41330376Y-35792915D01*
X41332555Y-35782834D01*
X41360590Y-35569887D01*
X41361109Y-35563212D01*
X41362572Y-35503364D01*
X41362378Y-35496646D01*
X41344781Y-35282604D01*
X41343096Y-35272424D01*
X41291214Y-35065875D01*
X41287894Y-35056124D01*
X41202972Y-34860814D01*
X41198105Y-34851739D01*
X41133063Y-34751197D01*
X41122377Y-34741995D01*
X41112812Y-34746398D01*
X39246737Y-36612473D01*
X39239977Y-36624853D01*
X36939630Y-36624853D01*
X36753087Y-36558795D01*
X36753083Y-36558794D01*
X36748212Y-36557069D01*
X36743119Y-36556162D01*
X36743116Y-36556161D01*
X36533373Y-36518800D01*
X36533367Y-36518799D01*
X36528284Y-36517894D01*
X36454452Y-36516992D01*
X36310081Y-36515228D01*
X36310079Y-36515228D01*
X36304911Y-36515165D01*
X36084091Y-36548955D01*
X35871756Y-36618357D01*
X35673607Y-36721507D01*
X35669474Y-36724610D01*
X35669471Y-36724612D01*
X35499100Y-36852530D01*
X35494965Y-36855635D01*
X35340629Y-37017138D01*
X35337715Y-37021410D01*
X35337714Y-37021411D01*
X35294033Y-37085445D01*
X35214743Y-37201680D01*
X35120688Y-37404305D01*
X35060989Y-37619570D01*
X35037251Y-37841695D01*
X35037548Y-37846848D01*
X35037548Y-37846851D01*
X35043011Y-37941590D01*
X35050110Y-38064715D01*
X35051247Y-38069761D01*
X35051248Y-38069767D01*
X35071119Y-38157939D01*
X35099222Y-38282639D01*
X35139346Y-38381453D01*
X35174408Y-38467800D01*
X35183266Y-38489616D01*
X35299987Y-38680088D01*
X35303367Y-38683990D01*
X35442866Y-38845032D01*
X35442869Y-38845035D01*
X35446250Y-38848938D01*
X35450185Y-38852205D01*
X35484853Y-38914145D01*
X35480530Y-38985010D01*
X35438580Y-39042287D01*
X35381078Y-39066765D01*
X35339205Y-39073172D01*
X35339200Y-39073173D01*
X35334091Y-39073955D01*
X35121756Y-39143357D01*
X35088437Y-39160702D01*
X34943672Y-39236062D01*
X34923607Y-39246507D01*
X34919474Y-39249610D01*
X34919471Y-39249612D01*
X34749100Y-39377530D01*
X34744965Y-39380635D01*
X34741393Y-39384373D01*
X34637993Y-39492575D01*
X34590629Y-39542138D01*
X34464743Y-39726680D01*
X34370688Y-39929305D01*
X34310989Y-40144570D01*
X34287251Y-40366695D01*
X33022724Y-40366695D01*
X33009101Y-40077833D01*
X33009004Y-40068599D01*
X33021275Y-39600000D01*
X33022175Y-39565613D01*
X33022755Y-39556400D01*
X33040626Y-39377361D01*
X33051881Y-39264598D01*
X33072727Y-39055746D01*
X33073980Y-39046597D01*
X33160487Y-38550937D01*
X33162407Y-38541905D01*
X33284981Y-38053917D01*
X33287557Y-38045049D01*
X33310771Y-37974858D01*
X33445544Y-37567340D01*
X33448762Y-37558688D01*
X33497626Y-37440720D01*
X33641309Y-37093838D01*
X33645152Y-37085445D01*
X33871228Y-36635943D01*
X33875677Y-36627851D01*
X34028550Y-36372419D01*
X34134063Y-36196119D01*
X34139087Y-36188382D01*
X34182080Y-36127210D01*
X34428406Y-35776723D01*
X34433989Y-35769368D01*
X34677494Y-35471863D01*
X38638050Y-35471863D01*
X38650309Y-35684477D01*
X38651745Y-35694697D01*
X38698565Y-35902446D01*
X38701645Y-35912275D01*
X38781770Y-36109603D01*
X38786413Y-36118794D01*
X38866460Y-36249420D01*
X38876916Y-36258880D01*
X38885694Y-36255096D01*
X39627978Y-35512812D01*
X39635592Y-35498868D01*
X39635461Y-35497035D01*
X39631210Y-35490420D01*
X38889849Y-34749059D01*
X38878313Y-34742759D01*
X38866031Y-34752382D01*
X38818089Y-34822662D01*
X38813004Y-34831613D01*
X38723338Y-35024783D01*
X38719775Y-35034470D01*
X38662864Y-35239681D01*
X38660933Y-35249800D01*
X38638302Y-35461574D01*
X38638050Y-35471863D01*
X34677494Y-35471863D01*
X34752672Y-35380013D01*
X34758779Y-35373086D01*
X35105119Y-35008121D01*
X35111716Y-35001660D01*
X35483868Y-34663028D01*
X35490921Y-34657068D01*
X35848835Y-34376427D01*
X39241223Y-34376427D01*
X39247968Y-34388758D01*
X39987188Y-35127978D01*
X40001132Y-35135592D01*
X40002965Y-35135461D01*
X40009580Y-35131210D01*
X40753389Y-34387401D01*
X40760410Y-34374544D01*
X40753611Y-34365213D01*
X40749554Y-34362518D01*
X40563117Y-34259599D01*
X40553705Y-34255369D01*
X40352959Y-34184280D01*
X40342989Y-34181646D01*
X40133327Y-34144301D01*
X40123073Y-34143331D01*
X39910116Y-34140728D01*
X39899832Y-34141448D01*
X39689321Y-34173661D01*
X39679293Y-34176050D01*
X39476868Y-34242212D01*
X39467359Y-34246209D01*
X39278466Y-34344540D01*
X39269734Y-34350039D01*
X39249677Y-34365099D01*
X39241223Y-34376427D01*
X35848835Y-34376427D01*
X35886863Y-34346609D01*
X35894334Y-34341181D01*
X36311954Y-34060552D01*
X36319802Y-34055686D01*
X36378418Y-34022252D01*
X36756860Y-33806393D01*
X36765042Y-33802116D01*
X36835340Y-33768586D01*
X37009808Y-33685369D01*
X37219172Y-33585508D01*
X37227646Y-33581841D01*
X37696424Y-33399072D01*
X37705145Y-33396035D01*
X38186049Y-33248089D01*
X38194965Y-33245700D01*
X38685436Y-33133367D01*
X38694486Y-33131641D01*
X39191847Y-33055533D01*
X39201008Y-33054473D01*
X39451821Y-33034734D01*
X39702629Y-33014995D01*
X39711855Y-33014609D01*
X39987590Y-33013165D01*
X40214992Y-33011974D01*
X40224211Y-33012264D01*
G37*
G04 #@! TD.AperFunction*
M02*
